<?xml version="1.0" encoding="UTF-8"?>
<svg id="Capa_1" data-name="Capa 1" xmlns="http://www.w3.org/2000/svg" version="1.1" viewBox="0 0 50 50">
  <defs>
    <style>
      .cls-1 {
        fill: #fff;
        stroke-width: 0px;
      }
    </style>
  </defs>
  <path class="cls-1" d="M48.87,18.27c-.37-.69-.74-1.33-1.25-1.92-.12-.16-.17-.21-.44-.21-2.65.02-5.27.07-7.92.07-.25,0-.39.02-.64.02l-4.66.02c-.02.11-.17.25-.25.34-.1.14-.2.23-.29.37l-1.01,1.49c-.61,1.01-1.23,2.4-1.37,3.57-.02.18-.02.39-.05.57-.07.41.1,1.21.22,1.58.1.32.25.55.42.82.29.48.78.94,1.28,1.26.96.6,2.23.85,3.38,1.08.17.02.39.09.56.09-.17.3-1.05,1.28-1.3,1.58-.98,1.21-2.01,2.38-2.99,3.59l-.49.6c-.07.07-.12.11-.17.21-.1.11-.22.32-.37.39l-.93-1.56c-.27-.46-.29-.37-.29-.96v-15.88h6.35v-5.52h-6.35V3.46c-.83,0-.81.02-1.62-.07-.17-.02-.34-.02-.54-.05-1.3-.14-3.04-.14-4.34.05-1.3.18-2.55.43-3.78.8-.56.18-1.13.37-1.67.6-.27.09-.51.21-.78.32-.12.07-.25.11-.37.16-.15.07-.25.14-.39.21-.15.07-.25.09-.37.18-.61.32-1.2.64-1.81,1.01-.22.16-.44.3-.66.46-.12.07-.22.14-.32.23-.34.23-.66.46-.96.71l-.59.5c-.37.34-.66.53-1.03.94l-1.2,1.28c-.17.21-.34.41-.51.62-.17.21-.32.41-.47.64-.32.43-.64.85-.91,1.3l-1.18,2.15s-.93-1.05-.96-1.19c-.22.05-.42.3-.64.34.02.21.29.5.42.66.15.23.29.46.44.66.22.32.39.37.22.73-.34.8-.59,1.62-.81,2.47-.22.76-.47,1.95-.51,2.75-.02.14-.02.32-.05.48-.1.62.15.16-.29.82-.22.34-.42.71-.56,1.1-.51,1.24-.49,2.43.12,3.55.12.23.27.43.44.64.17.21.34.41.54.57l.32.25c.44.32.25.23.56,1.1l.29.82c.1.27.2.5.29.78.39,1.03.91,1.99,1.5,2.91.15.23.29.46.44.66.49.64.96,1.28,1.47,1.9.17.21.34.37.54.6.15.18.42.37.54.55l-.93-.41c.05.11.2.18.32.27.12.09.2.16.34.23l1.08.69c.44.41,1.13.98,1.62,1.33.1.09.2.16.32.25l1.08.73c1.72,1.1,3.73,2.04,5.69,2.65l1.4.41c.12.02.34.09.51.11-.17-.11-.76-.25-.96-.32-.64-.21-1.25-.43-1.86-.71-.17-.07-.27-.11-.44-.18-.34-.14-.96-.46-1.28-.64-.07-.05-.12-.05-.2-.09-.22-.11-.32-.37-.44-.55-.15-.25-.32-.5-.49-.78-.07-.14-.15-.25-.22-.39-.07-.11-.2-.25-.22-.41.32.07.91.14,1.28.14,0,.53.15,1.03.15,1.56,6.06,0,12.11-.05,18.17-.05.07-.32.07-.66.1-.98,0-.3.07-.64.07-.96l.27-2.91c.05-.32.05-.64.1-.96l.17-1.97h8.78v-.87c0-.34.02-.55.02-.89-.34-.07-3.19-.02-3.8-.02,0-.8-.05-1.62-.02-2.43,0-.14.02-.14.02-.25l.05-.89c.07-.55.17-.98.56-1.35.29-.25,1.05-.41,1.45-.5,2.11-.41,4.22-.57,5.39-2.4,1.32-2.04.81-4.71-.34-6.84ZM25.75,5.27h2.5l-.05,6.41,4.71.02c.54,0,1.01.02,1.57.02,0,.21.02.3.02.5v1.17h-6.2v14.99l-.29-.48c-.1-.18-.2-.32-.29-.5-.1-.16-.2-.32-.29-.48-.07-.09-.1-.16-.15-.25-.07-.09-.12-.16-.15-.27h-.07c-.02.09-1.15,1.92-1.3,2.08v-15.1c-2.06,0-4.02.02-6.08.02,0-.27-.02-.5-.05-.78l-.05-.8h6.23l-.05-6.55ZM21.46,32.12c-1.01-4-2.38-10.23.44-13.75.47-.57,1.3-1.14,1.32-1.17-.07-.21-1.01-1.56-1.15-1.81h1.62v16.41s-1.18,1.97-1.3,2.06l-.86-1.05c-.05-.14.02-.07.02-.21s-.07-.37-.1-.48ZM18.05,15.39h3.97c-.1.11-.25.25-.39.34-.66.43-1.84.87-2.6,1.14-.2.07-.34.11-.54.21-.91.32-1.96.62-2.87.89-.49.14-1.94.55-2.38.66l.42-1.19c.12-.39.27-.76.44-1.14.15-.37.32-.76.49-1.12.07-.21.17-.37.25-.55l2.53-4.74v4.9c0,.71-.17.6.69.6ZM17.36,9.87c.05-.11.1-.18.12-.3.12,0,.86.18,1.01.3h-1.13ZM15.91,7.26c.98-.55,1.64-.94,2.75-1.44,1.69-.8,3.09-1.33,5.03-1.74v5.79h-3.51c-.1,0-1.08-.43-1.32-.53-.49-.16-.91-.32-1.42-.46-.96-.25-1.2-.34-2.23-.55-.2-.05-.61-.14-.83-.14.05-.07,1.23-.78,1.54-.94ZM8.14,16.17c.2-.41.91-1.81,1.15-2.2.12-.16.22-.34.34-.5.54-.87.81-1.19,1.4-1.99.54-.71.96-1.08,1.4-1.6.17-.23,1.03-1.05,1.05-1.1l1.96.3c.32.07.59.11.93.18.32.07.59.16.88.23-.17.25-.54.64-.81,1.01-.12.18-.25.34-.37.53-.49.66-.83,1.26-1.28,1.92-.05.09-.1.18-.15.27-.32.5-.71,1.24-.98,1.76-.22.48-1.52,3.41-1.57,3.87-1.13-.25-2.72-.82-3.58-1.53l-.64-.55c.05-.18.17-.41.25-.6ZM6.74,20.31c.1-.5.27-1.24.44-1.69l.15-.41c.02-.11.12-.3.12-.39.1.07.2.14.27.25.15.16.22.23.39.34.07.05.1.09.15.14.25.21.66.48.93.62l.66.34s.02,0,.05.02c-.47.11-.93.32-1.35.48-.27.11-1.01.53-1.25.66l-.54.39c-.07.05-.12.09-.2.14l.17-.89ZM8.8,31.57c0,.21-.05.48-.05.66-.02.48-.1.89-.1,1.37q-.07-.02-.12-.14c-.44-.85-.78-1.74-1.13-2.65l-.15-.43s1.18.43,1.62.53c-.05.14-.07.48-.07.66ZM7.09,28.09c-.54-.37-.37-.32-.59-.64-.17-.23-.29-.64-.32-.92-.07-.55.02-.92.17-1.37.32-1.03,1.23-2.17,2.16-2.77.27-.16.86-.5,1.18-.53,0,.25-.05.6-.05.82-.02.27-.02.62-.05.87-.07.43-.1,1.97-.17,2.49l-.17,2.54c-.76,0-1.59-.11-2.16-.5ZM12.75,39.23l-.34-.32c-.07-.09-.07-.11-.17-.18-.25-.23-1.03-1.19-1.25-1.46-.51-.62-1.2-1.58-1.62-2.27l-.05-.14h1.54c.54,0,1.01-.02,1.52-.02.05.18.51,1.21.59,1.35.07.11.1.21.17.32l.51.98c.22.41.47.82.71,1.24l.78,1.19-1.1-.25c-.25-.07-1.18-.27-1.3-.43ZM16.7,41.91c.1.11.66.71.69.82-.49-.25-1.4-.85-1.84-1.17l-1.28-.96c-.07-.07-.1-.11-.2-.18s-.15-.09-.2-.18l1.18.34c.49.14.64.07.81.27l.49.64c.12.14.22.27.34.41ZM16.8,40.1c-.32,0-.56-.07-.86-.07-.02-.14-.22-.43-.29-.62-.27-.6-.61-1.14-.93-1.88l-.93-2.33c-.05-.09-.1-.27-.12-.37l3.58-.02c0,.34.15,1.46.15,1.95.02.21.07.48.07.69,0,.18.02.46.05.64l.17,2.01h-.88ZM18.96,19.23c-.07.18-.15.37-.22.55l-.2.57c-.1.43-.17.8-.25,1.26l-.07,1.01c-.05.39-.07,2.17-.02,2.54l.42,4.07c-.07-.05-.17-.21-.25-.3l-.49-.6c-.1-.11-.17-.21-.27-.3-.07-.11-.91-1.14-1.01-1.21,0,.73.15,1.53.17,2.2l.29,3.66c-1.03,0-1.94.02-2.97.02h-2.89c0-.37.05-.87.05-1.08l.2-3.27c.02-.11.02-.21.02-.37l.07-1.1c.05-.46.05-.98.1-1.44.02-.46.05-.96.07-1.46.02-.18.05-.5.07-.69.02-.34.05-1.14.1-1.44v-.37c0-.14.02-.21.02-.39l3.63-1.19c.59-.18,3.38-1.14,3.7-1.14-.02.09-.22.32-.29.46ZM34.31,36.56c0,.25-.02.57-.05.8l-.1,1.58c0,.53-.1,1.05-.1,1.6-4.73,0-9.42-.07-14.15-.07-.02-.23-.05-.5-.07-.78l-.07-.8c-.07-.62-.12-1.76-.2-2.45l-.07-.8c-.02-.46-.12-1.33-.12-1.65l2.21,2.4c.15.18.93,1.03,1.03,1.1l3.29-5.03c.15-.23,1.01-1.6,1.13-1.67.02.11.98,1.51,1.08,1.65.34.57.71,1.1,1.08,1.65.17.27.37.55.54.82.17.27.37.55.54.82.1.16,1.05,1.56,1.1,1.67.12-.02.64-.64.78-.78l.76-.8c.1-.07.12-.11.2-.21l.98-.98c.05-.07.34-.37.39-.41l-.17,2.33ZM39.5,32.71c-.02.23.05.23-.22.23h-1.89c-.2,0-.27.02-.47.02,0-.09.02-.16.02-.32,0-.11.02-.18.02-.34.05-.57.15-1.42.2-2.04.02-.46.25-2.38.25-2.72.56.25,1.42.14,1.77,1.05.39.98.47,2.95.32,4.12ZM47.82,22.67c-.49,2.68-4.39,3.3-6.94,3.3-2.26,0-4.29-.16-5.96-1.24-.76-.5-1.42-1.42-1.42-2.36s.12-1.51.56-2.36c.2-.41.54-.92.83-1.3.02-.02.05-.07.07-.09.02-.05,0-.07.1-.07h11.03c.25,0,1.1,1.33,1.3,1.69.37.69.59,1.6.42,2.43Z"/>
  <path class="cls-1" d="M3.31,22.76l.05-1.14c.05-1.01.22-1.92.34-2.84.34-2.22,1.1-4.14,2.21-5.86.42-.64.88-1.26,1.37-1.88l1.79-1.88,2.31-1.83c.74-.55,2.01-1.33,2.82-1.72.12-.05.17-.09.27-.14l.86-.41c.96-.43,1.96-.85,2.97-1.17,2.7-.89,5.69-1.49,8.63-1.49l-.83-.11c-.22-.02-1.91-.09-2.5-.09h-.2c-.27.05-.56.02-.88.02-.56.05-1.13.07-1.69.14-2.28.3-3.26.46-5.32,1.12-.59.18-1.1.37-1.67.6l-.96.41c-1.42.66-2.72,1.44-3.95,2.33l-.76.6c-.32.23-.91.78-1.2,1.05l-1.01,1.01c-.05.07-.05.09-.12.14l-.61.71c-.07.09-.12.16-.2.25l-.59.76c-.37.5-.71,1.05-1.05,1.6l-1.23,2.31c-.2.41-.34.8-.54,1.24l-.86,2.63c-.25.89-.47,1.9-.56,2.93-.02.23-.07.53-.1.76-.02.27,0,.57-.05.82-.02.18-.05.37-.05.57v.39c.02.69.07,1.44.1,1.99,0,.11.02.27.02.39.32,2.81.98,4.99,2.13,7.53.22.48.64,1.33.91,1.76.37.53.66,1.08,1.03,1.6l.76,1.03c.37.43,1.01,1.26,1.45,1.67l1.13,1.12c.15.14.32.3.47.43l1.01.8c1.25,1.03,2.97,2.01,4.46,2.72.22.09.42.18.64.27,1.1.5,2.28.82,3.43,1.14,1.01.27,2.06.43,3.11.57.29.02.51.05.83.07.56.07,1.25.09,1.91.09h.81l1.72-.11c1.32-.11,2.6-.41,3.87-.71,1.35-.3,2.8-.85,4.05-1.42.05-.02.07-.02.15-.07l2.23-1.14c.2-.11.39-.23.59-.34.07-.07.17-.11.27-.18.17-.09.74-.43.81-.55-.1.02-.17.07-.27.11-.44.25-.91.48-1.35.73-.44.23-1.3.55-1.77.73-.81.3-1.72.55-2.55.78-1.2.3-2.4.43-3.63.57-.49.07-1.1.07-1.62.07-.17,0-.22.05-.37.05-.17,0-.22-.05-.42-.05-2.48.02-4.95-.46-7.23-1.17-1.64-.5-3.16-1.19-4.63-2.01-.37-.21-.69-.39-1.03-.62-.49-.3-1.01-.64-1.45-1.01l-.34-.27s-.07-.05-.12-.09l-.88-.76c-3.11-2.88-5.03-6.04-6.13-10.09-.34-1.26-.56-2.75-.71-4.07-.05-.37-.05-1.21-.1-1.51-.05-.34-.02-1.14-.02-1.56.02-.16.05-.18.05-.34Z"/>
</svg>